<svg xmlns="http://www.w3.org/2000/svg" width="1040" height="620" viewBox="0 0 1040 620">
<rect width="100%" height="100%" fill="white"/>
<text x="520.0" y="34" text-anchor="middle" font-size="24" font-family="Arial" font-weight="bold">Scenario 1 + Pathfinder: Macro Metrics</text>
<text x="18" y="300.0" transform="rotate(-90 18,300.0)" text-anchor="middle" font-size="14" font-family="Arial">Value</text>
<line x1="96" y1="528.00" x2="1016" y2="528.00" stroke="#E3E3E3" stroke-width="1"/>
<text x="84" y="533.00" text-anchor="end" font-size="12" font-family="Arial" fill="#444">0</text>
<line x1="96" y1="414.00" x2="1016" y2="414.00" stroke="#E3E3E3" stroke-width="1"/>
<text x="84" y="419.00" text-anchor="end" font-size="12" font-family="Arial" fill="#444">20000</text>
<line x1="96" y1="300.00" x2="1016" y2="300.00" stroke="#E3E3E3" stroke-width="1"/>
<text x="84" y="305.00" text-anchor="end" font-size="12" font-family="Arial" fill="#444">40000</text>
<line x1="96" y1="186.00" x2="1016" y2="186.00" stroke="#E3E3E3" stroke-width="1"/>
<text x="84" y="191.00" text-anchor="end" font-size="12" font-family="Arial" fill="#444">60000</text>
<line x1="96" y1="72.00" x2="1016" y2="72.00" stroke="#E3E3E3" stroke-width="1"/>
<text x="84" y="77.00" text-anchor="end" font-size="12" font-family="Arial" fill="#444">80000</text>
<line x1="96" y1="528.00" x2="1016" y2="528.00" stroke="#666" stroke-width="1.2"/>
<text x="172.67" y="594" text-anchor="middle" font-size="12" font-family="Arial">Total evacuation time (s)</text>
<rect x="120.41" y="525.55" width="30.91" height="2.45" fill="#4E79A7" stroke="#333" stroke-width="0.8"/>
<rect x="157.21" y="525.96" width="30.91" height="2.04" fill="#59A14F" stroke="#333" stroke-width="0.8"/>
<rect x="194.01" y="526.38" width="30.91" height="1.62" fill="#E15759" stroke="#333" stroke-width="0.8"/>
<text x="326.00" y="594" text-anchor="middle" font-size="12" font-family="Arial">Average travel time (s)</text>
<rect x="273.74" y="527.53" width="30.91" height="1.00" fill="#4E79A7" stroke="#333" stroke-width="0.8"/>
<rect x="310.54" y="527.58" width="30.91" height="1.00" fill="#59A14F" stroke="#333" stroke-width="0.8"/>
<rect x="347.34" y="527.60" width="30.91" height="1.00" fill="#E15759" stroke="#333" stroke-width="0.8"/>
<text x="479.33" y="594" text-anchor="middle" font-size="12" font-family="Arial">Queueing (person-s)</text>
<rect x="427.08" y="184.39" width="30.91" height="343.61" fill="#4E79A7" stroke="#333" stroke-width="0.8"/>
<rect x="463.88" y="131.35" width="30.91" height="396.65" fill="#59A14F" stroke="#333" stroke-width="0.8"/>
<rect x="500.68" y="182.97" width="30.91" height="345.03" fill="#E15759" stroke="#333" stroke-width="0.8"/>
<text x="632.67" y="594" text-anchor="middle" font-size="12" font-family="Arial">Moderate congestion &gt;3 (person-s)</text>
<rect x="580.41" y="349.44" width="30.91" height="178.56" fill="#4E79A7" stroke="#333" stroke-width="0.8"/>
<rect x="617.21" y="297.42" width="30.91" height="230.58" fill="#59A14F" stroke="#333" stroke-width="0.8"/>
<rect x="654.01" y="319.23" width="30.91" height="208.77" fill="#E15759" stroke="#333" stroke-width="0.8"/>
<text x="786.00" y="594" text-anchor="middle" font-size="12" font-family="Arial">Severe congestion &gt;5 (person-s)</text>
<rect x="733.74" y="410.90" width="30.91" height="117.10" fill="#4E79A7" stroke="#333" stroke-width="0.8"/>
<rect x="770.54" y="378.50" width="30.91" height="149.50" fill="#59A14F" stroke="#333" stroke-width="0.8"/>
<rect x="807.34" y="371.21" width="30.91" height="156.79" fill="#E15759" stroke="#333" stroke-width="0.8"/>
<text x="939.33" y="594" text-anchor="middle" font-size="12" font-family="Arial">Peak density (person/m^2)</text>
<rect x="887.08" y="527.89" width="30.91" height="1.00" fill="#4E79A7" stroke="#333" stroke-width="0.8"/>
<rect x="923.88" y="527.89" width="30.91" height="1.00" fill="#59A14F" stroke="#333" stroke-width="0.8"/>
<rect x="960.68" y="527.89" width="30.91" height="1.00" fill="#E15759" stroke="#333" stroke-width="0.8"/>
<rect x="96" y="562" width="16" height="16" fill="#4E79A7" stroke="#333" stroke-width="0.7"/>
<text x="120" y="575" font-size="13" font-family="Arial">ACO</text>
<rect x="284" y="562" width="16" height="16" fill="#59A14F" stroke="#333" stroke-width="0.7"/>
<text x="308" y="575" font-size="13" font-family="Arial">PaperImprovedAStar</text>
<rect x="472" y="562" width="16" height="16" fill="#E15759" stroke="#333" stroke-width="0.7"/>
<text x="496" y="575" font-size="13" font-family="Arial">OurSinglePath</text>
</svg>