<svg xmlns="http://www.w3.org/2000/svg" width="1040" height="620" viewBox="0 0 1040 620">
<rect width="100%" height="100%" fill="white"/>
<text x="520.0" y="34" text-anchor="middle" font-size="24" font-family="Arial" font-weight="bold">Scenario 1 + Pathfinder: Macro Metrics</text>
<text x="18" y="300.0" transform="rotate(-90 18,300.0)" text-anchor="middle" font-size="14" font-family="Arial">Value</text>
<line x1="96" y1="528.00" x2="1016" y2="528.00" stroke="#E3E3E3" stroke-width="1"/>
<text x="84" y="533.00" text-anchor="end" font-size="12" font-family="Arial" fill="#444">0</text>
<line x1="96" y1="376.00" x2="1016" y2="376.00" stroke="#E3E3E3" stroke-width="1"/>
<text x="84" y="381.00" text-anchor="end" font-size="12" font-family="Arial" fill="#444">20000</text>
<line x1="96" y1="224.00" x2="1016" y2="224.00" stroke="#E3E3E3" stroke-width="1"/>
<text x="84" y="229.00" text-anchor="end" font-size="12" font-family="Arial" fill="#444">40000</text>
<line x1="96" y1="72.00" x2="1016" y2="72.00" stroke="#E3E3E3" stroke-width="1"/>
<text x="84" y="77.00" text-anchor="end" font-size="12" font-family="Arial" fill="#444">60000</text>
<line x1="96" y1="528.00" x2="1016" y2="528.00" stroke="#666" stroke-width="1.2"/>
<text x="172.67" y="594" text-anchor="middle" font-size="12" font-family="Arial">Total evacuation time (s)</text>
<rect x="120.41" y="524.52" width="30.91" height="3.48" fill="#4E79A7" stroke="#333" stroke-width="0.8"/>
<rect x="157.21" y="525.34" width="30.91" height="2.66" fill="#59A14F" stroke="#333" stroke-width="0.8"/>
<rect x="194.01" y="525.57" width="30.91" height="2.43" fill="#E15759" stroke="#333" stroke-width="0.8"/>
<text x="326.00" y="594" text-anchor="middle" font-size="12" font-family="Arial">Average travel time (s)</text>
<rect x="273.74" y="527.20" width="30.91" height="1.00" fill="#4E79A7" stroke="#333" stroke-width="0.8"/>
<rect x="310.54" y="527.27" width="30.91" height="1.00" fill="#59A14F" stroke="#333" stroke-width="0.8"/>
<rect x="347.34" y="527.24" width="30.91" height="1.00" fill="#E15759" stroke="#333" stroke-width="0.8"/>
<text x="479.33" y="594" text-anchor="middle" font-size="12" font-family="Arial">Queueing (person-s)</text>
<rect x="427.08" y="122.08" width="30.91" height="405.92" fill="#4E79A7" stroke="#333" stroke-width="0.8"/>
<rect x="463.88" y="155.98" width="30.91" height="372.02" fill="#59A14F" stroke="#333" stroke-width="0.8"/>
<rect x="500.68" y="195.06" width="30.91" height="332.94" fill="#E15759" stroke="#333" stroke-width="0.8"/>
<text x="632.67" y="594" text-anchor="middle" font-size="12" font-family="Arial">Moderate congestion &gt;3 (person-s)</text>
<rect x="580.41" y="292.41" width="30.91" height="235.59" fill="#4E79A7" stroke="#333" stroke-width="0.8"/>
<rect x="617.21" y="331.65" width="30.91" height="196.35" fill="#59A14F" stroke="#333" stroke-width="0.8"/>
<rect x="654.01" y="340.54" width="30.91" height="187.46" fill="#E15759" stroke="#333" stroke-width="0.8"/>
<text x="786.00" y="594" text-anchor="middle" font-size="12" font-family="Arial">Severe congestion &gt;5 (person-s)</text>
<rect x="733.74" y="341.39" width="30.91" height="186.61" fill="#4E79A7" stroke="#333" stroke-width="0.8"/>
<rect x="770.54" y="390.04" width="30.91" height="137.96" fill="#59A14F" stroke="#333" stroke-width="0.8"/>
<rect x="807.34" y="399.02" width="30.91" height="128.98" fill="#E15759" stroke="#333" stroke-width="0.8"/>
<text x="939.33" y="594" text-anchor="middle" font-size="12" font-family="Arial">Peak density (person/m^2)</text>
<rect x="887.08" y="527.83" width="30.91" height="1.00" fill="#4E79A7" stroke="#333" stroke-width="0.8"/>
<rect x="923.88" y="527.85" width="30.91" height="1.00" fill="#59A14F" stroke="#333" stroke-width="0.8"/>
<rect x="960.68" y="527.86" width="30.91" height="1.00" fill="#E15759" stroke="#333" stroke-width="0.8"/>
<rect x="96" y="562" width="16" height="16" fill="#4E79A7" stroke="#333" stroke-width="0.7"/>
<text x="120" y="575" font-size="13" font-family="Arial">ACO</text>
<rect x="284" y="562" width="16" height="16" fill="#59A14F" stroke="#333" stroke-width="0.7"/>
<text x="308" y="575" font-size="13" font-family="Arial">PaperImprovedAStar</text>
<rect x="472" y="562" width="16" height="16" fill="#E15759" stroke="#333" stroke-width="0.7"/>
<text x="496" y="575" font-size="13" font-family="Arial">AdaptiveSingleNextHop</text>
</svg>