<svg xmlns="http://www.w3.org/2000/svg" width="1040" height="620" viewBox="0 0 1040 620">
<rect width="100%" height="100%" fill="white"/>
<text x="520.0" y="34" text-anchor="middle" font-size="24" font-family="Arial" font-weight="bold">Scenario 1 + Pathfinder: Reroute Summary</text>
<text x="18" y="300.0" transform="rotate(-90 18,300.0)" text-anchor="middle" font-size="14" font-family="Arial">Count</text>
<line x1="96" y1="528.00" x2="1016" y2="528.00" stroke="#E3E3E3" stroke-width="1"/>
<text x="84" y="533.00" text-anchor="end" font-size="12" font-family="Arial" fill="#444">0</text>
<line x1="96" y1="436.80" x2="1016" y2="436.80" stroke="#E3E3E3" stroke-width="1"/>
<text x="84" y="441.80" text-anchor="end" font-size="12" font-family="Arial" fill="#444">1000</text>
<line x1="96" y1="345.60" x2="1016" y2="345.60" stroke="#E3E3E3" stroke-width="1"/>
<text x="84" y="350.60" text-anchor="end" font-size="12" font-family="Arial" fill="#444">2000</text>
<line x1="96" y1="254.40" x2="1016" y2="254.40" stroke="#E3E3E3" stroke-width="1"/>
<text x="84" y="259.40" text-anchor="end" font-size="12" font-family="Arial" fill="#444">3000</text>
<line x1="96" y1="163.20" x2="1016" y2="163.20" stroke="#E3E3E3" stroke-width="1"/>
<text x="84" y="168.20" text-anchor="end" font-size="12" font-family="Arial" fill="#444">4000</text>
<line x1="96" y1="72.00" x2="1016" y2="72.00" stroke="#E3E3E3" stroke-width="1"/>
<text x="84" y="77.00" text-anchor="end" font-size="12" font-family="Arial" fill="#444">5000</text>
<line x1="96" y1="528.00" x2="1016" y2="528.00" stroke="#666" stroke-width="1.2"/>
<text x="211.00" y="594" text-anchor="middle" font-size="12" font-family="Arial">Baseline changes</text>
<rect x="134.82" y="343.32" width="69.55" height="184.68" fill="#E15759" stroke="#333" stroke-width="0.8"/>
<rect x="217.62" y="525.81" width="69.55" height="2.19" fill="#4E79A7" stroke="#333" stroke-width="0.8"/>
<text x="441.00" y="594" text-anchor="middle" font-size="12" font-family="Arial">Our changes</text>
<rect x="364.82" y="522.71" width="69.55" height="5.29" fill="#E15759" stroke="#333" stroke-width="0.8"/>
<rect x="447.62" y="522.71" width="69.55" height="5.29" fill="#4E79A7" stroke="#333" stroke-width="0.8"/>
<text x="671.00" y="594" text-anchor="middle" font-size="12" font-family="Arial">Divergences</text>
<rect x="594.82" y="150.71" width="69.55" height="377.29" fill="#E15759" stroke="#333" stroke-width="0.8"/>
<rect x="677.62" y="330.83" width="69.55" height="197.17" fill="#4E79A7" stroke="#333" stroke-width="0.8"/>
<text x="901.00" y="594" text-anchor="middle" font-size="12" font-family="Arial">Affected sources</text>
<rect x="824.82" y="525.54" width="69.55" height="2.46" fill="#E15759" stroke="#333" stroke-width="0.8"/>
<rect x="907.62" y="526.08" width="69.55" height="1.92" fill="#4E79A7" stroke="#333" stroke-width="0.8"/>
<rect x="96" y="562" width="16" height="16" fill="#E15759" stroke="#333" stroke-width="0.7"/>
<text x="120" y="575" font-size="13" font-family="Arial">OurSinglePath vs ACO</text>
<rect x="284" y="562" width="16" height="16" fill="#4E79A7" stroke="#333" stroke-width="0.7"/>
<text x="308" y="575" font-size="13" font-family="Arial">OurSinglePath vs PaperImprovedAStar</text>
</svg>