<svg xmlns="http://www.w3.org/2000/svg" width="1040" height="620" viewBox="0 0 1040 620">
<rect width="100%" height="100%" fill="white"/>
<text x="520.0" y="34" text-anchor="middle" font-size="24" font-family="Arial" font-weight="bold">Ablation Sensitivity Relative To AdaptiveSingleNextHop</text>
<text x="18" y="300.0" transform="rotate(-90 18,300.0)" text-anchor="middle" font-size="14" font-family="Arial">Delta (%)</text>
<line x1="96" y1="528.00" x2="1016" y2="528.00" stroke="#E3E3E3" stroke-width="1"/>
<text x="84" y="533.00" text-anchor="end" font-size="12" font-family="Arial" fill="#444">-15</text>
<line x1="96" y1="436.80" x2="1016" y2="436.80" stroke="#E3E3E3" stroke-width="1"/>
<text x="84" y="441.80" text-anchor="end" font-size="12" font-family="Arial" fill="#444">-10</text>
<line x1="96" y1="345.60" x2="1016" y2="345.60" stroke="#E3E3E3" stroke-width="1"/>
<text x="84" y="350.60" text-anchor="end" font-size="12" font-family="Arial" fill="#444">-5</text>
<line x1="96" y1="254.40" x2="1016" y2="254.40" stroke="#E3E3E3" stroke-width="1"/>
<text x="84" y="259.40" text-anchor="end" font-size="12" font-family="Arial" fill="#444">0</text>
<line x1="96" y1="163.20" x2="1016" y2="163.20" stroke="#E3E3E3" stroke-width="1"/>
<text x="84" y="168.20" text-anchor="end" font-size="12" font-family="Arial" fill="#444">5</text>
<line x1="96" y1="72.00" x2="1016" y2="72.00" stroke="#E3E3E3" stroke-width="1"/>
<text x="84" y="77.00" text-anchor="end" font-size="12" font-family="Arial" fill="#444">10</text>
<line x1="96" y1="254.40" x2="1016" y2="254.40" stroke="#666" stroke-width="1.2"/>
<text x="188.00" y="594" text-anchor="middle" font-size="12" font-family="Arial">AdaptiveSingleNextHop</text>
<rect x="123.88" y="254.40" width="22.26" height="1.00" fill="#E15759" stroke="#333" stroke-width="0.8"/>
<rect x="150.38" y="254.40" width="22.26" height="1.00" fill="#4E79A7" stroke="#333" stroke-width="0.8"/>
<rect x="176.87" y="254.40" width="22.26" height="1.00" fill="#4E79A7" stroke="#333" stroke-width="0.8"/>
<rect x="203.37" y="254.40" width="22.26" height="1.00" fill="#4E79A7" stroke="#333" stroke-width="0.8"/>
<rect x="229.86" y="254.40" width="22.26" height="1.00" fill="#4E79A7" stroke="#333" stroke-width="0.8"/>
<text x="372.00" y="594" text-anchor="middle" font-size="12" font-family="Arial">NoUpstreamLoadPenalty</text>
<rect x="307.88" y="157.35" width="22.26" height="97.05" fill="#E15759" stroke="#333" stroke-width="0.8"/>
<rect x="334.38" y="254.40" width="22.26" height="88.50" fill="#4E79A7" stroke="#333" stroke-width="0.8"/>
<rect x="360.87" y="254.40" width="22.26" height="31.43" fill="#4E79A7" stroke="#333" stroke-width="0.8"/>
<rect x="387.37" y="254.40" width="22.26" height="228.54" fill="#4E79A7" stroke="#333" stroke-width="0.8"/>
<rect x="413.86" y="173.50" width="22.26" height="80.90" fill="#4E79A7" stroke="#333" stroke-width="0.8"/>
<text x="556.00" y="594" text-anchor="middle" font-size="12" font-family="Arial">NoDownstreamLoadPenalty</text>
<rect x="491.88" y="254.40" width="22.26" height="1.00" fill="#E15759" stroke="#333" stroke-width="0.8"/>
<rect x="518.38" y="252.46" width="22.26" height="1.94" fill="#4E79A7" stroke="#333" stroke-width="0.8"/>
<rect x="544.87" y="248.08" width="22.26" height="6.32" fill="#4E79A7" stroke="#333" stroke-width="0.8"/>
<rect x="571.37" y="244.03" width="22.26" height="10.37" fill="#4E79A7" stroke="#333" stroke-width="0.8"/>
<rect x="597.86" y="254.40" width="22.26" height="1.00" fill="#4E79A7" stroke="#333" stroke-width="0.8"/>
<text x="740.00" y="594" text-anchor="middle" font-size="12" font-family="Arial">NoExitPressurePenalty</text>
<rect x="675.88" y="254.40" width="22.26" height="1.00" fill="#E15759" stroke="#333" stroke-width="0.8"/>
<rect x="702.38" y="241.43" width="22.26" height="12.97" fill="#4E79A7" stroke="#333" stroke-width="0.8"/>
<rect x="728.87" y="225.97" width="22.26" height="28.43" fill="#4E79A7" stroke="#333" stroke-width="0.8"/>
<rect x="755.37" y="218.50" width="22.26" height="35.90" fill="#4E79A7" stroke="#333" stroke-width="0.8"/>
<rect x="781.86" y="254.40" width="22.26" height="1.00" fill="#4E79A7" stroke="#333" stroke-width="0.8"/>
<text x="924.00" y="594" text-anchor="middle" font-size="12" font-family="Arial">NoPredictivePenalties</text>
<rect x="859.88" y="174.48" width="22.26" height="79.92" fill="#E15759" stroke="#333" stroke-width="0.8"/>
<rect x="886.38" y="254.40" width="22.26" height="71.80" fill="#4E79A7" stroke="#333" stroke-width="0.8"/>
<rect x="912.87" y="235.14" width="22.26" height="19.26" fill="#4E79A7" stroke="#333" stroke-width="0.8"/>
<rect x="939.37" y="254.40" width="22.26" height="191.63" fill="#4E79A7" stroke="#333" stroke-width="0.8"/>
<rect x="965.86" y="173.50" width="22.26" height="80.90" fill="#4E79A7" stroke="#333" stroke-width="0.8"/>
<rect x="96" y="562" width="16" height="16" fill="#E15759" stroke="#333" stroke-width="0.7"/>
<text x="120" y="575" font-size="13" font-family="Arial">Evacuation delta %</text>
<rect x="284" y="562" width="16" height="16" fill="#4E79A7" stroke="#333" stroke-width="0.7"/>
<text x="308" y="575" font-size="13" font-family="Arial">Queueing delta %</text>
<rect x="472" y="562" width="16" height="16" fill="#4E79A7" stroke="#333" stroke-width="0.7"/>
<text x="496" y="575" font-size="13" font-family="Arial">Moderate congestion delta %</text>
<rect x="660" y="562" width="16" height="16" fill="#4E79A7" stroke="#333" stroke-width="0.7"/>
<text x="684" y="575" font-size="13" font-family="Arial">Severe congestion delta %</text>
<rect x="848" y="562" width="16" height="16" fill="#4E79A7" stroke="#333" stroke-width="0.7"/>
<text x="872" y="575" font-size="13" font-family="Arial">Peak density delta %</text>
</svg>